{"title":"Manhunter.1986.BDRip.480P.x264.AC3-CHD.mkv","uid":9596600,"size":1478106450,"categoryP":"video","categoryS":"movies","magnet":"?xt=urn:btih:51fd6dd3e5bfbd2dd5d9583b072de16c9f82ac54&amp;dn=Manhunter.1986.BDRip.480P.x264.AC3-CHD.mkv&amp;tr=udp%3A%2F%2Ftracker.openbittorrent.com%3A80&amp;tr=udp%3A%2F%2Fopen.demonii.com%3A1337&amp;tr=udp%3A%2F%2Ftracker.coppersurfer.tk%3A6969&amp;tr=udp%3A%2F%2Fexodus.desync.com%3A6969","seeders":2,"leechers":2,"uploader":"rpessoa","files":1,"time":1392033038,"description":"An F.B.I. specialist tracks a serial killer who appears to select his victims at random.\n  &lt;a href=&quot;\nhttp://www.imdb.com/title/tt0091474/&quot; rel=&quot;nofollow&quot; target=&quot;_NEW&quot;&gt;\nhttp://www.imdb.com/title/tt0091474/&lt;/a&gt;\n\nGeneral\nUnique ID                                : 216732521895857309478027149801355186719 (0xA30D2A569E19BB6F9C476C254E57921F)\nComplete name                            : Manhunter.1986.BDRip.480P.x264.AC3-CHD.mkv\nFormat                                   : Matroska\nFormat version                           : Version 1\nFile size                                : 1.38 GiB\nDuration                                 : 2h 0mn\nOverall bit rate                         : 1 641 Kbps\nEncoded date                             : UTC 2009-09-18 04:37:39\nWriting application                      : mkvmerge v2.2.0 ('Turn It On Again') built on Mar  4 2008 12:58:26\nWriting library                          : libebml v0.7.7 + libmatroska v0.8.1\n\nVideo\nID                                       : 1\nFormat                                   : AVC\nFormat/Info                              : Advanced Video Codec\nFormat profile                           : &lt;a class=&quot;__cf_email__&quot; href=&quot;/cdn-cgi/l/email-protection&quot; data-cfemail=&quot;fab2939d92bab6c9d4ca&quot;&gt;[email&amp;#160;protected]&lt;/a&gt;&lt;script cf-hash='f9e31' type=&quot;text/javascript&quot;&gt;\n/* &lt;![CDATA[ */!function(){try{var t=&quot;currentScript&quot;in document?document.currentScript:function(){for(var t=document.getElementsByTagName(&quot;script&quot;),e=t.length;e--;)if(t[e].getAttribute(&quot;cf-hash&quot;))return t[e]}();if(t&amp;&amp;t.previousSibling){var e,r,n,i,c=t.previousSibling,a=c.getAttribute(&quot;data-cfemail&quot;);if(a){for(e=&quot;&quot;,r=parseInt(a.substr(0,2),16),n=2;a.length-n;n+=2)i=parseInt(a.substr(n,2),16)^r,e+=String.fromCharCode(i);e=document.createTextNode(e),c.parentNode.replaceChild(e,c)}}}catch(u){}}();/* ]]&gt; */&lt;/script&gt;\nFormat settings, CABAC                   : Yes\nFormat settings, ReFrames                : 3 frames\nCodec ID                                 : V_MPEG4/ISO/AVC\nDuration                                 : 2h 0mn\nBit rate                                 : 1 254 Kbps\nWidth                                    : 848 pixels\nHeight                                   : 368 pixels\nDisplay aspect ratio                     : 2.35:1\nFrame rate                               : 23.976 fps\nColor space                              : YUV\nChroma subsampling                       : 4:2:0\nBit depth                                : 8 bits\nScan type                                : Progressive\nBits/(Pixel*Frame)                       : 0.168\nStream size                              : 1.03 GiB (75%)\nWriting library                          : x264 core 68 r1183M f21daff\nEncoding settings                        : cabac=1 / ref=3 / deblock=1:-1:-1 / analyse=0x3:0x133 / me=hex / subme=5 / psy_rd=0.0:0.0 / mixed_ref=1 / me_range=16 / chroma_me=1 / trellis=0 / 8x8dct=1 / cqm=0 / deadzone=21,11 / chroma_qp_offset=0 / threads=6 / nr=0 / decimate=1 / mbaff=0 / bframes=16 / b_pyramid=0 / b_adapt=1 / b_bias=0 / direct=3 / wpredb=1 / keyint=250 / keyint_min=25 / scenecut=40 / rc=2pass / bitrate=1254 / ratetol=1.0 / qcomp=0.60 / qpmin=10 / qpmax=51 / qpstep=4 / cplxblur=20.0 / qblur=0.5 / ip_ratio=1.40 / pb_ratio=1.30 / aq=1:1.00\nDefault                                  : Yes\nForced                                   : No\n\nAudio\nID                                       : 2\nFormat                                   : AC-3\nFormat/Info                              : Audio Coding 3\nMode extension                           : CM (complete main)\nCodec ID                                 : A_AC3\nDuration                                 : 2h 0mn\nBit rate mode                            : Constant\nBit rate                                 : 384 Kbps\nChannel(s)                               : 6 channels\nChannel positions                        : Front: L C R, Side: L R, LFE\nSampling rate                            : 48.0 KHz\nBit depth                                : 16 bits\nCompression mode                         : Lossy\nStream size                              : 330 MiB (23%)\nDefault                                  : Yes\nForced                                   : No","torrent":{"xt":"urn:btih:51fd6dd3e5bfbd2dd5d9583b072de16c9f82ac54","amp;dn":"Manhunter.1986.BDRip.480P.x264.AC3-CHD.mkv","amp;tr":["udp%3A%2F%2Ftracker.openbittorrent.com%3A80","udp%3A%2F%2Fopen.demonii.com%3A1337","udp%3A%2F%2Ftracker.coppersurfer.tk%3A6969","udp%3A%2F%2Fexodus.desync.com%3A6969"],"infoHash":"51fd6dd3e5bfbd2dd5d9583b072de16c9f82ac54","infoHashBuffer":{"type":"Buffer","data":[81,253,109,211,229,191,189,45,213,217,88,59,7,45,225,108,159,130,172,84]},"announce":[],"urlList":[]}}